<svg width="608" height="391" viewBox="0 0 608 391" fill="none" xmlns="http://www.w3.org/2000/svg">
<path d="M100.8 51.264C100.8 21.168 78.768 0 50.4 0C22.176 0 0 21.168 0 51.264C0 81.36 22.176 102.528 50.4 102.528C78.768 102.528 100.8 81.36 100.8 51.264ZM13.392 51.264C13.392 26.64 29.232 11.376 50.4 11.376C71.568 11.376 87.408 26.64 87.408 51.264C87.408 75.744 71.568 91.152 50.4 91.152C29.232 91.152 13.392 75.744 13.392 51.264Z" fill="#E6E6E6"/>
<path d="M188.083 22.608H174.979V65.952C174.979 82.944 165.907 91.296 152.371 91.296C139.123 91.296 130.339 83.088 130.339 67.104V22.608H117.379V68.832C117.379 91.44 131.635 102.672 149.779 102.672C160.291 102.672 169.939 98.064 174.979 89.856V101.52H188.083V22.608Z" fill="#E6E6E6"/>
<path d="M223.312 58.608C223.312 40.32 232.816 34.704 245.344 34.704H248.801V21.168C236.273 21.168 227.777 26.64 223.312 35.424V22.608H210.208V101.52H223.312V58.608Z" fill="#E6E6E6"/>
<path d="M3.744 245.52H23.904V180.144L50.976 245.52H66.24L93.168 180.144V245.52H113.328V145.008H90.576L58.608 219.744L26.64 145.008H3.744V245.52Z" fill="#E6E6E6"/>
<path d="M167.532 181.008C177.9 181.008 186.252 187.632 186.54 198.144H148.668C150.252 187.2 157.884 181.008 167.532 181.008ZM205.404 220.464H183.66C181.068 225.792 176.316 230.112 167.676 230.112C157.596 230.112 149.532 223.488 148.524 211.68H206.844C207.276 209.088 207.42 206.496 207.42 203.904C207.42 180.144 191.148 164.448 168.108 164.448C144.492 164.448 128.076 180.432 128.076 205.632C128.076 230.688 144.924 246.816 168.108 246.816C187.836 246.816 201.084 235.152 205.404 220.464Z" fill="#E6E6E6"/>
<path d="M216.951 205.344C216.951 230.256 233.079 246.816 253.383 246.816C265.911 246.816 274.839 241.056 279.591 233.712V245.52H300.039V138.96H279.591V176.832C274.119 169.344 264.039 164.448 253.527 164.448C233.079 164.448 216.951 180.432 216.951 205.344ZM279.735 205.632C279.735 220.752 269.655 229.104 258.567 229.104C247.767 229.104 237.543 220.464 237.543 205.344C237.543 190.224 247.767 182.16 258.567 182.16C269.655 182.16 279.735 190.512 279.735 205.632Z" fill="#E6E6E6"/>
<path d="M319.728 245.52H339.888V165.744H319.728V245.52ZM329.952 156.24C337.008 156.24 342.336 151.056 342.336 144.432C342.336 137.808 337.008 132.624 329.952 132.624C322.752 132.624 317.568 137.808 317.568 144.432C317.568 151.056 322.752 156.24 329.952 156.24Z" fill="#E6E6E6"/>
<path d="M354.623 205.344C354.623 230.256 370.751 246.816 390.911 246.816C403.583 246.816 412.655 240.768 417.407 233.856V245.52H437.711V165.744H417.407V177.12C412.655 170.496 403.871 164.448 391.055 164.448C370.751 164.448 354.623 180.432 354.623 205.344ZM417.407 205.632C417.407 220.752 407.327 229.104 396.239 229.104C385.439 229.104 375.215 220.464 375.215 205.344C375.215 190.224 385.439 182.16 396.239 182.16C407.327 182.16 417.407 190.512 417.407 205.632Z" fill="#E6E6E6"/>
<path d="M23.904 334.656V305.424H39.888C51.264 305.424 56.304 310.896 56.304 320.112C56.304 329.04 51.264 334.656 39.888 334.656H23.904ZM77.04 320.112C77.04 302.688 64.944 289.008 40.752 289.008H3.744V389.52H23.904V350.928H40.752C66.672 350.928 77.04 335.376 77.04 320.112Z" fill="#E6E6E6"/>
<path d="M86.1694 349.344C86.1694 374.256 102.297 390.816 122.457 390.816C135.129 390.816 144.201 384.768 148.953 377.856V389.52H169.257V309.744H148.953V321.12C144.201 314.496 135.417 308.448 122.601 308.448C102.297 308.448 86.1694 324.432 86.1694 349.344ZM148.953 349.632C148.953 364.752 138.873 373.104 127.785 373.104C116.985 373.104 106.761 364.464 106.761 349.344C106.761 334.224 116.985 326.16 127.785 326.16C138.873 326.16 148.953 334.512 148.953 349.632Z" fill="#E6E6E6"/>
<path d="M209.107 349.776C209.107 334.368 216.307 329.76 228.259 329.76H233.587V308.592C222.499 308.592 214.147 313.92 209.107 322.128V309.744H188.947V389.52H209.107V349.776Z" fill="#E6E6E6"/>
<path d="M250.334 364.752C250.334 383.04 260.558 389.52 275.822 389.52H288.494V372.528H279.134C272.798 372.528 270.638 370.224 270.638 364.896V326.304H288.494V309.744H270.638V290.016H250.334V309.744H240.83V326.304H250.334V364.752Z" fill="#E6E6E6"/>
<path d="M358.866 389.52H379.026V342.72C379.026 320.688 365.778 308.592 347.202 308.592C336.978 308.592 328.338 312.912 323.154 319.68V309.744H302.994V389.52H323.154V345.456C323.154 332.64 330.21 325.728 341.154 325.728C351.81 325.728 358.866 332.64 358.866 345.456V389.52Z" fill="#E6E6E6"/>
<path d="M432.469 325.008C442.837 325.008 451.189 331.632 451.477 342.144H413.605C415.189 331.2 422.821 325.008 432.469 325.008ZM470.341 364.464H448.597C446.005 369.792 441.253 374.112 432.613 374.112C422.533 374.112 414.469 367.488 413.461 355.68H471.781C472.213 353.088 472.357 350.496 472.357 347.904C472.357 324.144 456.085 308.448 433.045 308.448C409.429 308.448 393.013 324.432 393.013 349.632C393.013 374.688 409.861 390.816 433.045 390.816C452.773 390.816 466.021 379.152 470.341 364.464Z" fill="#E6E6E6"/>
<path d="M507.232 349.776C507.232 334.368 514.432 329.76 526.384 329.76H531.712V308.592C520.624 308.592 512.272 313.92 507.232 322.128V309.744H487.072V389.52H507.232V349.776Z" fill="#E6E6E6"/>
<path d="M607.211 366.768C606.635 337.536 562.427 346.608 562.427 332.064C562.427 327.456 566.315 324.432 573.803 324.432C581.723 324.432 586.619 328.608 587.195 334.8H606.491C605.339 318.96 593.675 308.448 574.379 308.448C554.651 308.448 542.843 319.104 542.843 332.352C542.843 361.584 587.915 352.512 587.915 366.768C587.915 371.376 583.595 374.976 575.675 374.976C567.611 374.976 561.995 370.368 561.275 364.32H540.971C541.835 379.152 555.803 390.816 575.819 390.816C595.259 390.816 607.211 380.448 607.211 366.768Z" fill="#E6E6E6"/>
</svg>
