<svg width="21" height="23" viewBox="0 0 21 23" fill="none" xmlns="http://www.w3.org/2000/svg">
<path d="M6.9375 12.9375H5.0625C4.75313 12.9375 4.5 12.6949 4.5 12.3984V10.6016C4.5 10.3051 4.75313 10.0625 5.0625 10.0625H6.9375C7.24687 10.0625 7.5 10.3051 7.5 10.6016V12.3984C7.5 12.6949 7.24687 12.9375 6.9375 12.9375ZM12 12.3984V10.6016C12 10.3051 11.7469 10.0625 11.4375 10.0625H9.5625C9.25313 10.0625 9 10.3051 9 10.6016V12.3984C9 12.6949 9.25313 12.9375 9.5625 12.9375H11.4375C11.7469 12.9375 12 12.6949 12 12.3984ZM16.5 12.3984V10.6016C16.5 10.3051 16.2469 10.0625 15.9375 10.0625H14.0625C13.7531 10.0625 13.5 10.3051 13.5 10.6016V12.3984C13.5 12.6949 13.7531 12.9375 14.0625 12.9375H15.9375C16.2469 12.9375 16.5 12.6949 16.5 12.3984ZM12 16.7109V14.9141C12 14.6176 11.7469 14.375 11.4375 14.375H9.5625C9.25313 14.375 9 14.6176 9 14.9141V16.7109C9 17.0074 9.25313 17.25 9.5625 17.25H11.4375C11.7469 17.25 12 17.0074 12 16.7109ZM7.5 16.7109V14.9141C7.5 14.6176 7.24687 14.375 6.9375 14.375H5.0625C4.75313 14.375 4.5 14.6176 4.5 14.9141V16.7109C4.5 17.0074 4.75313 17.25 5.0625 17.25H6.9375C7.24687 17.25 7.5 17.0074 7.5 16.7109ZM16.5 16.7109V14.9141C16.5 14.6176 16.2469 14.375 15.9375 14.375H14.0625C13.7531 14.375 13.5 14.6176 13.5 14.9141V16.7109C13.5 17.0074 13.7531 17.25 14.0625 17.25H15.9375C16.2469 17.25 16.5 17.0074 16.5 16.7109ZM21 5.03125V20.8438C21 22.0342 19.9922 23 18.75 23H2.25C1.00781 23 0 22.0342 0 20.8438V5.03125C0 3.84082 1.00781 2.875 2.25 2.875H4.5V0.539062C4.5 0.242578 4.75313 0 5.0625 0H6.9375C7.24687 0 7.5 0.242578 7.5 0.539062V2.875H13.5V0.539062C13.5 0.242578 13.7531 0 14.0625 0H15.9375C16.2469 0 16.5 0.242578 16.5 0.539062V2.875H18.75C19.9922 2.875 21 3.84082 21 5.03125ZM18.75 20.5742V7.1875H2.25V20.5742C2.25 20.7225 2.37656 20.8438 2.53125 20.8438H18.4688C18.6234 20.8438 18.75 20.7225 18.75 20.5742Z" fill="url(#paint0_linear)"/>
<defs>
<linearGradient id="paint0_linear" x1="10.5" y1="-25.2848" x2="10.5" y2="23" gradientUnits="userSpaceOnUse">
<stop offset="0.0885417" stop-color="#E7AA68"/>
<stop offset="1" stop-color="#F15270"/>
</linearGradient>
</defs>
</svg>
