<svg width="19" height="24" viewBox="0 0 19 24" fill="none" xmlns="http://www.w3.org/2000/svg">
<path d="M18.6453 13.1077L18.6688 13.0783L17.9555 12.3324C17.4652 11.8197 16.569 11.8207 16.0789 12.3333L11.2802 17.3517L11.3044 1.29557C11.3045 0.945846 11.1855 0.628527 10.9475 0.379614C10.7093 0.130567 10.3999 -0.00013273 10.0655 1.01147e-07L9.00333 0.00305507C8.30998 0.00292226 7.77781 0.562381 7.77794 1.28774L7.81007 17.3958L2.95411 12.3175C2.46411 11.8051 1.57059 11.8326 1.08034 12.3453L0.327041 13.1331C-0.163217 13.6458 -0.0760875 14.4616 0.413916 14.974L8.67196 23.6102C8.90934 23.8584 9.18038 24.0011 9.51721 24C9.85543 24.0012 10.1263 23.8714 10.3637 23.6232L18.6191 14.9898C19.1091 14.4774 19.1354 13.6203 18.6453 13.1077Z" fill="#E6E6E6"/>
</svg>
