<svg width="16" height="15" viewBox="0 0 16 15" fill="none" xmlns="http://www.w3.org/2000/svg">
<path d="M13.4307 9.375H12.4932C12.3688 9.375 12.2496 9.42439 12.1617 9.51229C12.0738 9.6002 12.0244 9.71943 12.0244 9.84375V13.125H2.64941V3.75H6.86816C6.99248 3.75 7.11171 3.70061 7.19962 3.61271C7.28753 3.5248 7.33691 3.40557 7.33691 3.28125V2.34375C7.33691 2.21943 7.28753 2.1002 7.19962 2.01229C7.11171 1.92439 6.99248 1.875 6.86816 1.875H2.18066C1.8077 1.875 1.45002 2.02316 1.1863 2.28688C0.922572 2.5506 0.774414 2.90829 0.774414 3.28125L0.774414 13.5938C0.774414 13.9667 0.922572 14.3244 1.1863 14.5881C1.45002 14.8518 1.8077 15 2.18066 15H12.4932C12.8661 15 13.2238 14.8518 13.4875 14.5881C13.7513 14.3244 13.8994 13.9667 13.8994 13.5938V9.84375C13.8994 9.71943 13.85 9.6002 13.7621 9.51229C13.6742 9.42439 13.555 9.375 13.4307 9.375ZM15.0713 0H11.3213C10.6952 0 10.3823 0.759082 10.8232 1.20117L11.87 2.24795L4.72949 9.38584C4.66394 9.45116 4.61193 9.52878 4.57644 9.61425C4.54096 9.69971 4.52269 9.79135 4.52269 9.88389C4.52269 9.97643 4.54096 10.0681 4.57644 10.1535C4.61193 10.239 4.66394 10.3166 4.72949 10.3819L5.39365 11.0449C5.45898 11.1105 5.5366 11.1625 5.62206 11.198C5.70753 11.2335 5.79916 11.2517 5.8917 11.2517C5.98424 11.2517 6.07587 11.2335 6.16134 11.198C6.2468 11.1625 6.32442 11.1105 6.38975 11.0449L13.5268 3.90586L14.5732 4.95117C15.0127 5.39062 15.7744 5.08301 15.7744 4.45312V0.703125C15.7744 0.516645 15.7003 0.337802 15.5685 0.205941C15.4366 0.074079 15.2578 0 15.0713 0V0Z" fill="#E6E6E6"/>
</svg>
