<svg width="25" height="24" viewBox="0 0 25 24" fill="none" xmlns="http://www.w3.org/2000/svg">
<path d="M8.00562 12C8.00562 9.79095 9.79704 7.99968 12.0075 7.99968C14.2179 7.99968 16.0103 9.79095 16.0103 12C16.0103 14.209 14.2179 16.0003 12.0075 16.0003C9.79704 16.0003 8.00562 14.209 8.00562 12ZM5.84175 12C5.84175 15.4032 8.60211 18.1619 12.0075 18.1619C15.4128 18.1619 18.1732 15.4032 18.1732 12C18.1732 8.59677 15.4128 5.83813 12.0075 5.83813C8.60211 5.83813 5.84175 8.59677 5.84175 12ZM16.9763 5.59386C16.9763 6.38869 17.6213 7.03425 18.4176 7.03425C19.2129 7.03425 19.8589 6.38869 19.8589 5.59386C19.8589 4.79903 19.2139 4.15444 18.4176 4.15444C17.6213 4.15444 16.9763 4.79903 16.9763 5.59386ZM7.15598 21.7677C5.9853 21.7144 5.34904 21.5195 4.92616 21.3548C4.36555 21.1367 3.96595 20.8769 3.54501 20.4572C3.12504 20.0375 2.86414 19.6381 2.64688 19.0779C2.48199 18.6553 2.28704 18.0194 2.2337 16.8494C2.1755 15.5845 2.16386 15.2045 2.16386 12C2.16386 8.79548 2.17647 8.41648 2.2337 7.15057C2.28704 5.98061 2.48296 5.34572 2.64688 4.92213C2.86511 4.36187 3.12504 3.96252 3.54501 3.54184C3.96498 3.12213 4.36458 2.86139 4.92616 2.64426C5.34904 2.47948 5.9853 2.28465 7.15598 2.23134C8.42171 2.17318 8.80191 2.16155 12.0075 2.16155C15.214 2.16155 15.5932 2.17415 16.8599 2.23134C18.0306 2.28465 18.6659 2.48045 19.0897 2.64426C19.6503 2.86139 20.0499 3.12213 20.4709 3.54184C20.8908 3.96155 21.1508 4.36187 21.369 4.92213C21.5339 5.34475 21.7288 5.98061 21.7822 7.15057C21.8404 8.41648 21.852 8.79548 21.852 12C21.852 15.2036 21.8404 15.5835 21.7822 16.8494C21.7288 18.0194 21.5329 18.6553 21.369 19.0779C21.1508 19.6381 20.8908 20.0375 20.4709 20.4572C20.0509 20.8769 19.6503 21.1367 19.0897 21.3548C18.6668 21.5195 18.0306 21.7144 16.8599 21.7677C15.5942 21.8258 15.214 21.8375 12.0075 21.8375C8.80191 21.8375 8.42171 21.8258 7.15598 21.7677V21.7677ZM7.05705 0.0726979C5.77871 0.130856 4.90579 0.333441 4.14247 0.630048C3.35297 0.936349 2.68373 1.34733 2.01547 2.01422C1.34817 2.6811 0.936931 3.34992 0.63044 4.1399C0.333648 4.90275 0.130938 5.77512 0.0727431 7.05267C0.0135787 8.33215 0 8.7412 0 12C0 15.2588 0.0135787 15.6679 0.0727431 16.9473C0.130938 18.2249 0.333648 19.0973 0.63044 19.8601C0.936931 20.6491 1.3472 21.3189 2.01547 21.9858C2.68276 22.6527 3.352 23.0627 4.14247 23.37C4.90676 23.6666 5.77871 23.8691 7.05705 23.9273C8.33829 23.9855 8.74663 24 12.0075 24C15.2693 24 15.6776 23.9864 16.9579 23.9273C18.2362 23.8691 19.1091 23.6666 19.8724 23.37C20.6619 23.0627 21.3312 22.6527 21.9994 21.9858C22.6667 21.3189 23.077 20.6491 23.3845 19.8601C23.6813 19.0973 23.8849 18.2249 23.9422 16.9473C24.0004 15.6669 24.0139 15.2588 24.0139 12C24.0139 8.7412 24.0004 8.33215 23.9422 7.05267C23.884 5.77512 23.6813 4.90275 23.3845 4.1399C23.077 3.35089 22.6667 2.68207 21.9994 2.01422C21.3321 1.34733 20.6619 0.936349 19.8734 0.630048C19.1091 0.333441 18.2362 0.129887 16.9588 0.0726979C15.6786 0.0145396 15.2693 0 12.0084 0C8.74663 0 8.33829 0.0135703 7.05705 0.0726979" fill="white"/>
</svg>
