<svg width="30" height="24" viewBox="0 0 30 24" fill="none" xmlns="http://www.w3.org/2000/svg">
<path d="M20.0451 0.00532741V0H21.4518L21.9657 0.101221C22.3084 0.166935 22.6195 0.253052 22.899 0.3596C23.1786 0.466149 23.4491 0.590464 23.7106 0.732519C23.9721 0.874575 24.2092 1.01932 24.422 1.1667C24.633 1.31233 24.8224 1.46682 24.9901 1.63019C25.156 1.79534 25.4148 1.83796 25.7665 1.75805C26.1181 1.67814 26.4968 1.56714 26.9026 1.42508C27.3084 1.28303 27.7097 1.12321 28.1064 0.945616C28.5032 0.768027 28.7448 0.655272 28.8314 0.607325C28.9162 0.55762 28.9613 0.530983 28.9667 0.527414L28.972 0.519423L28.9991 0.506104L29.0262 0.492786L29.0532 0.479467L29.0803 0.466149L29.0857 0.458158L29.0938 0.45283L29.1019 0.447503L29.1073 0.439512L29.1344 0.431521L29.1614 0.426193L29.156 0.466149L29.1479 0.506104L29.1344 0.54606L29.1208 0.586016L29.1073 0.612653L29.0938 0.63929L29.0803 0.679245C29.0712 0.705882 29.0622 0.74139 29.0532 0.785794C29.0442 0.830198 28.9585 1.00776 28.7962 1.31853C28.6339 1.62931 28.431 1.94451 28.1876 2.26415C27.9441 2.5838 27.7259 2.82529 27.5329 2.98868C27.3382 3.15383 27.2092 3.26925 27.1461 3.33496C27.083 3.40243 27.0063 3.46458 26.9161 3.52142L26.7809 3.60932L26.7538 3.62264L26.7268 3.63596L26.7214 3.64395L26.7133 3.64928L26.7051 3.65461L26.6997 3.6626L26.6727 3.67592L26.6456 3.68923L26.6402 3.69723L26.6321 3.70255L26.624 3.70788L26.6186 3.71587L26.6132 3.72386L26.6051 3.72919L26.5969 3.73452L26.5915 3.74251H26.7268L27.4842 3.58269C27.9892 3.47614 28.4716 3.3474 28.9315 3.19645L29.6619 2.95671L29.743 2.93008L29.7836 2.91676L29.8106 2.90344L29.8377 2.89012L29.8647 2.8768L29.8918 2.86349L29.9459 2.85549L30 2.85017V2.90344L29.9865 2.90877L29.9729 2.91676L29.9676 2.92475L29.9594 2.93008L29.9513 2.93541L29.9459 2.9434L29.9405 2.95139L29.9324 2.95671L29.9243 2.96204L29.9188 2.97003L29.9135 2.97802L29.9053 2.98335L29.8918 3.00999L29.8783 3.03663L29.8702 3.04195C29.8666 3.04728 29.752 3.19821 29.5266 3.49478C29.3012 3.79312 29.1795 3.94404 29.1614 3.94761C29.1434 3.95294 29.1181 3.97958 29.0857 4.02752C29.055 4.07723 28.8638 4.27525 28.5122 4.62153C28.1605 4.96781 27.8161 5.2759 27.4788 5.54584C27.1398 5.81754 26.9685 6.15138 26.9649 6.54739C26.9595 6.94162 26.9387 7.38737 26.9026 7.88457C26.8666 8.38181 26.7989 8.91897 26.6997 9.49612C26.6006 10.0733 26.4473 10.7259 26.2399 11.4539C26.0325 12.182 25.78 12.8923 25.4824 13.5849C25.1849 14.2775 24.8738 14.899 24.5491 15.4495C24.2245 16 23.927 16.4662 23.6564 16.8479C23.3859 17.2297 23.1109 17.5893 22.8314 17.9267C22.5519 18.2642 22.1984 18.6442 21.771 19.0668C21.3418 19.4877 21.1073 19.7185 21.0677 19.7594C21.0262 19.7985 20.8495 19.9441 20.5374 20.1962C20.2273 20.4502 19.8936 20.7041 19.5365 20.958C19.1813 21.2102 18.8548 21.4207 18.5573 21.5893C18.2597 21.758 17.9008 21.9507 17.4806 22.1674C17.0622 22.3858 16.6096 22.5882 16.1226 22.7747C15.6357 22.9612 15.1217 23.1343 14.5807 23.2941C14.0397 23.4539 13.5167 23.5783 13.0117 23.667C12.5068 23.7558 11.9342 23.8313 11.294 23.8935L10.3336 23.9867V24H8.57529V23.9867L8.34536 23.9734C8.19208 23.9645 8.06583 23.9556 7.96664 23.9467C7.86747 23.9379 7.49324 23.889 6.844 23.8002C6.19477 23.7114 5.68531 23.6226 5.3156 23.5339C4.94592 23.4451 4.39585 23.2764 3.66546 23.0277C2.93508 22.7791 2.31019 22.5278 1.7908 22.2739C1.27323 22.0217 0.948611 21.8619 0.816952 21.7945C0.687106 21.7287 0.541028 21.6471 0.37872 21.5494L0.135257 21.4029L0.129874 21.3949L0.121731 21.3896L0.113616 21.3842L0.108206 21.3762L0.0811542 21.3629L0.0541028 21.3496L0.0487196 21.3416L0.0405771 21.3363L0.0324617 21.331L0.0270514 21.323L0.0216682 21.315L0.0135257 21.3097H0V21.2564L0.0270514 21.2617L0.0541028 21.2697L0.175834 21.283C0.256988 21.2919 0.477917 21.3052 0.838593 21.323C1.1993 21.3407 1.58251 21.3407 1.98828 21.323C2.39405 21.3052 2.80885 21.2653 3.23264 21.2031C3.65646 21.141 4.15691 21.0344 4.73399 20.8835C5.31111 20.7325 5.84132 20.5532 6.32464 20.3454C6.80616 20.1359 7.14879 19.9796 7.3526 19.8766C7.55456 19.7754 7.86295 19.5871 8.27773 19.3119L8.89991 18.899L8.90532 18.891L8.91344 18.8857L8.92158 18.8804L8.92696 18.8724L8.93237 18.8644L8.94049 18.859L8.94863 18.8537L8.95401 18.8457L8.98106 18.8377L9.00812 18.8324L9.01353 18.8058L9.02164 18.7791L9.02978 18.7738L9.03517 18.7658L8.81876 18.7525C8.67449 18.7436 8.53472 18.7347 8.39946 18.7259C8.2642 18.717 8.05231 18.677 7.76375 18.606C7.47522 18.535 7.16413 18.4284 6.83048 18.2863C6.49685 18.1443 6.17224 17.9756 5.85663 17.7802C5.54105 17.5849 5.31289 17.4224 5.17223 17.2928C5.03337 17.1649 4.85302 16.9838 4.6312 16.7494C4.41119 16.5132 4.22002 16.2708 4.05771 16.0222C3.8954 15.7736 3.74032 15.4868 3.59245 15.1618L3.3679 14.677L3.35437 14.6371L3.34085 14.5971L3.33273 14.5705L3.32732 14.5438L3.3679 14.5492L3.40848 14.5572L3.70604 14.5971C3.90444 14.6238 4.21553 14.6326 4.63931 14.6238C5.06313 14.6149 5.35618 14.5971 5.51849 14.5705C5.68079 14.5438 5.77999 14.5261 5.81605 14.5172L5.87015 14.5039L5.93778 14.4906L6.00541 14.4772L6.01082 14.4693L6.01894 14.4639L6.02708 14.4586L6.03246 14.4506L5.97836 14.4373L5.92426 14.424L5.87015 14.4107L5.81605 14.3973L5.76195 14.384C5.72589 14.3751 5.66278 14.3574 5.57259 14.3307C5.48243 14.3041 5.23896 14.2064 4.8422 14.0377C4.44546 13.869 4.12986 13.7048 3.8954 13.545C3.66037 13.3847 3.43626 13.2094 3.22453 13.0202C3.01353 12.8284 2.7818 12.5816 2.52931 12.2797C2.27684 11.9778 2.05142 11.6271 1.85302 11.2275C1.65465 10.828 1.50587 10.4462 1.40667 10.0821C1.30787 9.72022 1.24269 9.35022 1.21193 8.97669L1.16321 8.41731L1.19026 8.42264L1.21731 8.43063L1.24436 8.44395L1.27142 8.45727L1.29847 8.47059L1.32552 8.48391L1.74482 8.67037C2.02436 8.79468 2.37151 8.90123 2.78629 8.99001C3.2011 9.07879 3.44905 9.12764 3.53021 9.13651L3.65194 9.14983H3.8954L3.89002 9.14184L3.88188 9.13651L3.87376 9.13119L3.86835 9.1232L3.86297 9.11521L3.85482 9.10988L3.84671 9.10455L3.8413 9.09656L3.81425 9.08324L3.7872 9.06992L3.78181 9.06193L3.77367 9.0566L3.76555 9.05128L3.76014 9.04329L3.73309 9.02997L3.70604 9.01665L3.70066 9.00866C3.69525 9.00509 3.61769 8.94827 3.46799 8.83818C3.3201 8.7263 3.16501 8.58158 3.00271 8.404C2.8404 8.22641 2.67809 8.03995 2.51578 7.84462C2.35317 7.64884 2.20834 7.43938 2.08296 7.21865C1.95674 6.99668 1.82326 6.7143 1.6826 6.37159C1.54374 6.03063 1.43824 5.68701 1.3661 5.34073C1.29398 4.99445 1.2534 4.65262 1.24436 4.31521C1.23536 3.97779 1.24436 3.68923 1.27142 3.4495C1.29847 3.20977 1.35257 2.93895 1.43372 2.63707C1.51488 2.33519 1.63212 2.01555 1.78539 1.67814L2.01533 1.17203L2.02885 1.13208L2.04238 1.09212L2.05052 1.08679L2.05591 1.0788L2.06132 1.07081L2.06943 1.06548L2.07757 1.07081L2.08296 1.0788L2.08837 1.08679L2.09648 1.09212L2.10463 1.09745L2.11001 1.10544L2.11542 1.11343L2.12353 1.11876L2.13706 1.14539L2.15059 1.17203L2.15873 1.17736L2.16411 1.18535L2.52931 1.58491C2.77277 1.85128 3.06133 2.14873 3.39495 2.47725C3.7286 2.80576 3.91344 2.97624 3.9495 2.98868C3.98559 3.00288 4.03066 3.04371 4.08476 3.11121C4.13886 3.17692 4.31922 3.33408 4.62579 3.58269C4.93239 3.83129 5.33364 4.11988 5.82958 4.44839C6.32554 4.77691 6.87557 5.101 7.47971 5.42064C8.08388 5.74029 8.73311 6.02885 9.42741 6.28635C10.1217 6.54385 10.6087 6.71254 10.8882 6.79245C11.1677 6.87236 11.6456 6.97446 12.3219 7.09878C12.9982 7.22309 13.5077 7.30301 13.8503 7.33851C14.193 7.37402 14.4274 7.39445 14.5537 7.39978L14.743 7.40511L14.7376 7.36515L14.7295 7.32519L14.6754 6.99223C14.6393 6.77026 14.6213 6.45949 14.6213 6.05993C14.6213 5.66038 14.6528 5.29191 14.716 4.95449C14.7791 4.61708 14.8738 4.27525 15 3.92897C15.1262 3.58269 15.2498 3.30475 15.3706 3.09523C15.4933 2.88746 15.6538 2.65039 15.8521 2.38402C16.0505 2.11765 16.3075 1.84241 16.6231 1.55827C16.9387 1.27413 17.2994 1.02108 17.7051 0.799112C18.1109 0.577145 18.4851 0.408426 18.8278 0.293008C19.1704 0.177589 19.459 0.1021 19.6934 0.0665927C19.9279 0.0310855 20.0451 0.0106548 20.0451 0.00532741V0.00532741Z" fill="white"/>
</svg>
