<svg width="24" height="17" viewBox="0 0 24 17" fill="none" xmlns="http://www.w3.org/2000/svg">
<path d="M12.5317 16.5936L7.60784 16.5035C6.0136 16.4721 4.41539 16.5348 2.85241 16.2094C0.474754 15.7233 0.306312 13.3397 0.130056 11.3403C-0.112807 8.52943 -0.0187875 5.66754 0.439526 2.88013C0.69826 1.3161 1.71648 0.382829 3.29112 0.281271C8.6067 -0.0872953 13.9576 -0.0436163 19.2614 0.128333C19.8216 0.144096 20.3856 0.230252 20.9379 0.328319C23.6643 0.806626 23.7308 3.50776 23.9076 5.78161C24.0838 8.07892 24.0094 10.388 23.6725 12.6697C23.4022 14.5589 22.8851 16.1431 20.7028 16.296C17.9686 16.496 15.2971 16.657 12.5551 16.6058C12.5553 16.5936 12.5395 16.5936 12.5317 16.5936ZM9.63694 11.8108C11.6974 10.6268 13.7186 9.46246 15.7673 8.28637C13.703 7.10234 11.6857 5.93804 9.63694 4.76195V11.8108Z" fill="white"/>
</svg>
