<svg width="1000" height="1000" viewBox="0 0 1000 1000" fill="none" xmlns="http://www.w3.org/2000/svg">
<g opacity="0.8">
<mask id="mask0" mask-type="alpha" maskUnits="userSpaceOnUse" x="0" y="0" width="1000" height="1000">
<circle cx="500" cy="500" r="500" fill="url(#paint0_radial)"/>
</mask>
<g mask="url(#mask0)">
<g opacity="0.6">
<rect x="-22.2593" y="-55.834" width="50" height="50" rx="4" transform="rotate(45 -22.2593 -55.834)" fill="#183B89"/>
<rect x="55.1187" y="-55.834" width="50" height="50" rx="4" transform="rotate(45 55.1187 -55.834)" fill="#183B89"/>
<rect x="132.497" y="-55.834" width="50" height="50" rx="4" transform="rotate(45 132.497 -55.834)" fill="#183B89"/>
<rect x="209.875" y="-55.834" width="50" height="50" rx="4" transform="rotate(45 209.875 -55.834)" fill="#183B89"/>
<rect x="287.253" y="-55.834" width="50" height="50" rx="4" transform="rotate(45 287.253 -55.834)" fill="#183B89"/>
<rect x="364.63" y="-55.834" width="50" height="50" rx="4" transform="rotate(45 364.63 -55.834)" fill="#183B89"/>
<rect x="442.008" y="-55.834" width="50" height="50" rx="4" transform="rotate(45 442.008 -55.834)" fill="#183B89"/>
<rect x="519.386" y="-55.834" width="50" height="50" rx="4" transform="rotate(45 519.386 -55.834)" fill="#183B89"/>
<rect x="596.764" y="-55.834" width="50" height="50" rx="4" transform="rotate(45 596.764 -55.834)" fill="#183B89"/>
<rect x="674.142" y="-55.834" width="50" height="50" rx="4" transform="rotate(45 674.142 -55.834)" fill="#183B89"/>
<rect x="751.52" y="-55.834" width="50" height="50" rx="4" transform="rotate(45 751.52 -55.834)" fill="#183B89"/>
<rect x="828.897" y="-55.834" width="50" height="50" rx="4" transform="rotate(45 828.897 -55.834)" fill="#183B89"/>
<rect x="906.275" y="-55.834" width="50" height="50" rx="4" transform="rotate(45 906.275 -55.834)" fill="#183B89"/>
<rect x="983.653" y="-55.834" width="50" height="50" rx="4" transform="rotate(45 983.653 -55.834)" fill="#183B89"/>
<rect x="-22.2671" y="21.543" width="50" height="50" rx="4" transform="rotate(45 -22.2671 21.543)" fill="#183B89"/>
<rect x="55.1108" y="21.543" width="50" height="50" rx="4" transform="rotate(45 55.1108 21.543)" fill="#183B89"/>
<rect x="132.489" y="21.543" width="50" height="50" rx="4" transform="rotate(45 132.489 21.543)" fill="#183B89"/>
<rect x="209.867" y="21.543" width="50" height="50" rx="4" transform="rotate(45 209.867 21.543)" fill="#183B89"/>
<rect x="287.245" y="21.543" width="50" height="50" rx="4" transform="rotate(45 287.245 21.543)" fill="#183B89"/>
<rect x="364.623" y="21.543" width="50" height="50" rx="4" transform="rotate(45 364.623 21.543)" fill="#183B89"/>
<rect x="442" y="21.543" width="50" height="50" rx="4" transform="rotate(45 442 21.543)" fill="#183B89"/>
<rect x="519.378" y="21.543" width="50" height="50" rx="4" transform="rotate(45 519.378 21.543)" fill="#183B89"/>
<rect x="596.756" y="21.543" width="50" height="50" rx="4" transform="rotate(45 596.756 21.543)" fill="#183B89"/>
<rect x="674.134" y="21.543" width="50" height="50" rx="4" transform="rotate(45 674.134 21.543)" fill="#183B89"/>
<rect x="751.512" y="21.543" width="50" height="50" rx="4" transform="rotate(45 751.512 21.543)" fill="#183B89"/>
<rect x="828.89" y="21.543" width="50" height="50" rx="4" transform="rotate(45 828.89 21.543)" fill="#183B89"/>
<rect x="906.268" y="21.543" width="50" height="50" rx="4" transform="rotate(45 906.268 21.543)" fill="#183B89"/>
<rect x="983.646" y="21.543" width="50" height="50" rx="4" transform="rotate(45 983.646 21.543)" fill="#183B89"/>
<rect x="16.5513" y="-17.501" width="50" height="50" rx="4" transform="rotate(45 16.5513 -17.501)" fill="#183B89"/>
<rect x="93.9292" y="-17.501" width="50" height="50" rx="4" transform="rotate(45 93.9292 -17.501)" fill="#183B89"/>
<rect x="171.308" y="-17.501" width="50" height="50" rx="4" transform="rotate(45 171.308 -17.501)" fill="#183B89"/>
<rect x="248.686" y="-17.501" width="50" height="50" rx="4" transform="rotate(45 248.686 -17.501)" fill="#183B89"/>
<rect x="326.063" y="-17.501" width="50" height="50" rx="4" transform="rotate(45 326.063 -17.501)" fill="#183B89"/>
<rect x="403.441" y="-17.501" width="50" height="50" rx="4" transform="rotate(45 403.441 -17.501)" fill="#183B89"/>
<rect x="480.819" y="-17.501" width="50" height="50" rx="4" transform="rotate(45 480.819 -17.501)" fill="#183B89"/>
<rect x="558.196" y="-17.501" width="50" height="50" rx="4" transform="rotate(45 558.196 -17.501)" fill="#183B89"/>
<rect x="635.574" y="-17.501" width="50" height="50" rx="4" transform="rotate(45 635.574 -17.501)" fill="#183B89"/>
<rect x="712.952" y="-17.501" width="50" height="50" rx="4" transform="rotate(45 712.952 -17.501)" fill="#183B89"/>
<rect x="790.33" y="-17.501" width="50" height="50" rx="4" transform="rotate(45 790.33 -17.501)" fill="#183B89"/>
<rect x="867.708" y="-17.501" width="50" height="50" rx="4" transform="rotate(45 867.708 -17.501)" fill="#183B89"/>
<rect x="945.086" y="-17.501" width="50" height="50" rx="4" transform="rotate(45 945.086 -17.501)" fill="#183B89"/>
<rect x="1022.46" y="-17.501" width="50" height="50" rx="4" transform="rotate(45 1022.46 -17.501)" fill="#183B89"/>
<rect x="16.5435" y="59.876" width="50" height="50" rx="4" transform="rotate(45 16.5435 59.876)" fill="#183B89"/>
<rect x="93.9214" y="59.876" width="50" height="50" rx="4" transform="rotate(45 93.9214 59.876)" fill="#183B89"/>
<rect x="171.299" y="59.876" width="50" height="50" rx="4" transform="rotate(45 171.299 59.876)" fill="#183B89"/>
<rect x="248.677" y="59.876" width="50" height="50" rx="4" transform="rotate(45 248.677 59.876)" fill="#183B89"/>
<rect x="326.055" y="59.876" width="50" height="50" rx="4" transform="rotate(45 326.055 59.876)" fill="#183B89"/>
<rect x="403.433" y="59.876" width="50" height="50" rx="4" transform="rotate(45 403.433 59.876)" fill="#183B89"/>
<rect x="480.811" y="59.876" width="50" height="50" rx="4" transform="rotate(45 480.811 59.876)" fill="#183B89"/>
<rect x="558.189" y="59.876" width="50" height="50" rx="4" transform="rotate(45 558.189 59.876)" fill="#183B89"/>
<rect x="635.567" y="59.876" width="50" height="50" rx="4" transform="rotate(45 635.567 59.876)" fill="#183B89"/>
<rect x="712.945" y="59.876" width="50" height="50" rx="4" transform="rotate(45 712.945 59.876)" fill="#183B89"/>
<rect x="790.323" y="59.876" width="50" height="50" rx="4" transform="rotate(45 790.323 59.876)" fill="#183B89"/>
<rect x="867.701" y="59.876" width="50" height="50" rx="4" transform="rotate(45 867.701 59.876)" fill="#183B89"/>
<rect x="945.079" y="59.876" width="50" height="50" rx="4" transform="rotate(45 945.079 59.876)" fill="#183B89"/>
<rect x="1022.46" y="59.876" width="50" height="50" rx="4" transform="rotate(45 1022.46 59.876)" fill="#183B89"/>
<rect x="-22.2593" y="406.666" width="50" height="50" rx="4" transform="rotate(45 -22.2593 406.666)" fill="#183B89"/>
<rect x="55.1187" y="406.666" width="50" height="50" rx="4" transform="rotate(45 55.1187 406.666)" fill="#183B89"/>
<rect x="132.497" y="406.666" width="50" height="50" rx="4" transform="rotate(45 132.497 406.666)" fill="#183B89"/>
<rect x="209.875" y="406.666" width="50" height="50" rx="4" transform="rotate(45 209.875 406.666)" fill="#183B89"/>
<rect x="287.253" y="406.666" width="50" height="50" rx="4" transform="rotate(45 287.253 406.666)" fill="#183B89"/>
<rect x="364.63" y="406.666" width="50" height="50" rx="4" transform="rotate(45 364.63 406.666)" fill="#183B89"/>
<rect x="442.008" y="406.666" width="50" height="50" rx="4" transform="rotate(45 442.008 406.666)" fill="#183B89"/>
<rect x="519.386" y="406.666" width="50" height="50" rx="4" transform="rotate(45 519.386 406.666)" fill="#183B89"/>
<rect x="596.764" y="406.666" width="50" height="50" rx="4" transform="rotate(45 596.764 406.666)" fill="#183B89"/>
<rect x="674.142" y="406.666" width="50" height="50" rx="4" transform="rotate(45 674.142 406.666)" fill="#183B89"/>
<rect x="751.52" y="406.666" width="50" height="50" rx="4" transform="rotate(45 751.52 406.666)" fill="#183B89"/>
<rect x="828.897" y="406.666" width="50" height="50" rx="4" transform="rotate(45 828.897 406.666)" fill="#183B89"/>
<rect x="906.275" y="406.666" width="50" height="50" rx="4" transform="rotate(45 906.275 406.666)" fill="#183B89"/>
<rect x="983.653" y="406.666" width="50" height="50" rx="4" transform="rotate(45 983.653 406.666)" fill="#183B89"/>
<rect x="-22.2671" y="484.043" width="50" height="50" rx="4" transform="rotate(45 -22.2671 484.043)" fill="#183B89"/>
<rect x="55.1108" y="484.043" width="50" height="50" rx="4" transform="rotate(45 55.1108 484.043)" fill="#183B89"/>
<rect x="132.489" y="484.043" width="50" height="50" rx="4" transform="rotate(45 132.489 484.043)" fill="#183B89"/>
<rect x="209.867" y="484.043" width="50" height="50" rx="4" transform="rotate(45 209.867 484.043)" fill="#183B89"/>
<rect x="287.245" y="484.043" width="50" height="50" rx="4" transform="rotate(45 287.245 484.043)" fill="#183B89"/>
<rect x="364.623" y="484.043" width="50" height="50" rx="4" transform="rotate(45 364.623 484.043)" fill="#183B89"/>
<rect x="442" y="484.043" width="50" height="50" rx="4" transform="rotate(45 442 484.043)" fill="#183B89"/>
<rect x="519.378" y="484.043" width="50" height="50" rx="4" transform="rotate(45 519.378 484.043)" fill="#183B89"/>
<rect x="596.756" y="484.043" width="50" height="50" rx="4" transform="rotate(45 596.756 484.043)" fill="#183B89"/>
<rect x="674.134" y="484.043" width="50" height="50" rx="4" transform="rotate(45 674.134 484.043)" fill="#183B89"/>
<rect x="751.512" y="484.043" width="50" height="50" rx="4" transform="rotate(45 751.512 484.043)" fill="#183B89"/>
<rect x="828.89" y="484.043" width="50" height="50" rx="4" transform="rotate(45 828.89 484.043)" fill="#183B89"/>
<rect x="906.268" y="484.043" width="50" height="50" rx="4" transform="rotate(45 906.268 484.043)" fill="#183B89"/>
<rect x="983.646" y="484.043" width="50" height="50" rx="4" transform="rotate(45 983.646 484.043)" fill="#183B89"/>
<rect x="16.5513" y="444.999" width="50" height="50" rx="4" transform="rotate(45 16.5513 444.999)" fill="#183B89"/>
<rect x="93.9292" y="444.999" width="50" height="50" rx="4" transform="rotate(45 93.9292 444.999)" fill="#183B89"/>
<rect x="171.308" y="444.999" width="50" height="50" rx="4" transform="rotate(45 171.308 444.999)" fill="#183B89"/>
<rect x="248.686" y="444.999" width="50" height="50" rx="4" transform="rotate(45 248.686 444.999)" fill="#183B89"/>
<rect x="326.063" y="444.999" width="50" height="50" rx="4" transform="rotate(45 326.063 444.999)" fill="#183B89"/>
<rect x="403.441" y="444.999" width="50" height="50" rx="4" transform="rotate(45 403.441 444.999)" fill="#183B89"/>
<rect x="480.819" y="444.999" width="50" height="50" rx="4" transform="rotate(45 480.819 444.999)" fill="#183B89"/>
<rect x="558.196" y="444.999" width="50" height="50" rx="4" transform="rotate(45 558.196 444.999)" fill="#183B89"/>
<rect x="635.574" y="444.999" width="50" height="50" rx="4" transform="rotate(45 635.574 444.999)" fill="#183B89"/>
<rect x="712.952" y="444.999" width="50" height="50" rx="4" transform="rotate(45 712.952 444.999)" fill="#183B89"/>
<rect x="790.33" y="444.999" width="50" height="50" rx="4" transform="rotate(45 790.33 444.999)" fill="#183B89"/>
<rect x="867.708" y="444.999" width="50" height="50" rx="4" transform="rotate(45 867.708 444.999)" fill="#183B89"/>
<rect x="945.086" y="444.999" width="50" height="50" rx="4" transform="rotate(45 945.086 444.999)" fill="#183B89"/>
<rect x="1022.46" y="444.999" width="50" height="50" rx="4" transform="rotate(45 1022.46 444.999)" fill="#183B89"/>
<rect x="16.5435" y="522.376" width="50" height="50" rx="4" transform="rotate(45 16.5435 522.376)" fill="#183B89"/>
<rect x="93.9214" y="522.376" width="50" height="50" rx="4" transform="rotate(45 93.9214 522.376)" fill="#183B89"/>
<rect x="171.299" y="522.376" width="50" height="50" rx="4" transform="rotate(45 171.299 522.376)" fill="#183B89"/>
<rect x="248.677" y="522.376" width="50" height="50" rx="4" transform="rotate(45 248.677 522.376)" fill="#183B89"/>
<rect x="326.055" y="522.376" width="50" height="50" rx="4" transform="rotate(45 326.055 522.376)" fill="#183B89"/>
<rect x="403.433" y="522.376" width="50" height="50" rx="4" transform="rotate(45 403.433 522.376)" fill="#183B89"/>
<rect x="480.811" y="522.376" width="50" height="50" rx="4" transform="rotate(45 480.811 522.376)" fill="#183B89"/>
<rect x="558.189" y="522.376" width="50" height="50" rx="4" transform="rotate(45 558.189 522.376)" fill="#183B89"/>
<rect x="635.567" y="522.376" width="50" height="50" rx="4" transform="rotate(45 635.567 522.376)" fill="#183B89"/>
<rect x="712.945" y="522.376" width="50" height="50" rx="4" transform="rotate(45 712.945 522.376)" fill="#183B89"/>
<rect x="790.323" y="522.376" width="50" height="50" rx="4" transform="rotate(45 790.323 522.376)" fill="#183B89"/>
<rect x="867.701" y="522.376" width="50" height="50" rx="4" transform="rotate(45 867.701 522.376)" fill="#183B89"/>
<rect x="945.079" y="522.376" width="50" height="50" rx="4" transform="rotate(45 945.079 522.376)" fill="#183B89"/>
<rect x="1022.46" y="522.376" width="50" height="50" rx="4" transform="rotate(45 1022.46 522.376)" fill="#183B89"/>
<rect x="-22.2593" y="98.333" width="50" height="50" rx="4" transform="rotate(45 -22.2593 98.333)" fill="#183B89"/>
<rect x="55.1187" y="98.333" width="50" height="50" rx="4" transform="rotate(45 55.1187 98.333)" fill="#183B89"/>
<rect x="132.497" y="98.333" width="50" height="50" rx="4" transform="rotate(45 132.497 98.333)" fill="#183B89"/>
<rect x="209.875" y="98.333" width="50" height="50" rx="4" transform="rotate(45 209.875 98.333)" fill="#183B89"/>
<rect x="287.253" y="98.333" width="50" height="50" rx="4" transform="rotate(45 287.253 98.333)" fill="#183B89"/>
<rect x="364.63" y="98.333" width="50" height="50" rx="4" transform="rotate(45 364.63 98.333)" fill="#183B89"/>
<rect x="442.008" y="98.333" width="50" height="50" rx="4" transform="rotate(45 442.008 98.333)" fill="#183B89"/>
<rect x="519.386" y="98.333" width="50" height="50" rx="4" transform="rotate(45 519.386 98.333)" fill="#183B89"/>
<rect x="596.764" y="98.333" width="50" height="50" rx="4" transform="rotate(45 596.764 98.333)" fill="#183B89"/>
<rect x="674.142" y="98.333" width="50" height="50" rx="4" transform="rotate(45 674.142 98.333)" fill="#183B89"/>
<rect x="751.52" y="98.333" width="50" height="50" rx="4" transform="rotate(45 751.52 98.333)" fill="#183B89"/>
<rect x="828.897" y="98.333" width="50" height="50" rx="4" transform="rotate(45 828.897 98.333)" fill="#183B89"/>
<rect x="906.275" y="98.333" width="50" height="50" rx="4" transform="rotate(45 906.275 98.333)" fill="#183B89"/>
<rect x="983.653" y="98.333" width="50" height="50" rx="4" transform="rotate(45 983.653 98.333)" fill="#183B89"/>
<rect x="-22.2671" y="175.71" width="50" height="50" rx="4" transform="rotate(45 -22.2671 175.71)" fill="#183B89"/>
<rect x="55.1108" y="175.71" width="50" height="50" rx="4" transform="rotate(45 55.1108 175.71)" fill="#183B89"/>
<rect x="132.489" y="175.71" width="50" height="50" rx="4" transform="rotate(45 132.489 175.71)" fill="#183B89"/>
<rect x="209.867" y="175.71" width="50" height="50" rx="4" transform="rotate(45 209.867 175.71)" fill="#183B89"/>
<rect x="287.245" y="175.71" width="50" height="50" rx="4" transform="rotate(45 287.245 175.71)" fill="#183B89"/>
<rect x="364.623" y="175.71" width="50" height="50" rx="4" transform="rotate(45 364.623 175.71)" fill="#183B89"/>
<rect x="442" y="175.71" width="50" height="50" rx="4" transform="rotate(45 442 175.71)" fill="#183B89"/>
<rect x="519.378" y="175.71" width="50" height="50" rx="4" transform="rotate(45 519.378 175.71)" fill="#183B89"/>
<rect x="596.756" y="175.71" width="50" height="50" rx="4" transform="rotate(45 596.756 175.71)" fill="#183B89"/>
<rect x="674.134" y="175.71" width="50" height="50" rx="4" transform="rotate(45 674.134 175.71)" fill="#183B89"/>
<rect x="751.512" y="175.71" width="50" height="50" rx="4" transform="rotate(45 751.512 175.71)" fill="#183B89"/>
<rect x="828.89" y="175.71" width="50" height="50" rx="4" transform="rotate(45 828.89 175.71)" fill="#183B89"/>
<rect x="906.268" y="175.71" width="50" height="50" rx="4" transform="rotate(45 906.268 175.71)" fill="#183B89"/>
<rect x="983.646" y="175.71" width="50" height="50" rx="4" transform="rotate(45 983.646 175.71)" fill="#183B89"/>
<rect x="16.5513" y="136.666" width="50" height="50" rx="4" transform="rotate(45 16.5513 136.666)" fill="#183B89"/>
<rect x="93.9292" y="136.666" width="50" height="50" rx="4" transform="rotate(45 93.9292 136.666)" fill="#183B89"/>
<rect x="171.308" y="136.666" width="50" height="50" rx="4" transform="rotate(45 171.308 136.666)" fill="#183B89"/>
<rect x="248.686" y="136.666" width="50" height="50" rx="4" transform="rotate(45 248.686 136.666)" fill="#183B89"/>
<rect x="326.063" y="136.666" width="50" height="50" rx="4" transform="rotate(45 326.063 136.666)" fill="#183B89"/>
<rect x="403.441" y="136.666" width="50" height="50" rx="4" transform="rotate(45 403.441 136.666)" fill="#183B89"/>
<rect x="480.819" y="136.666" width="50" height="50" rx="4" transform="rotate(45 480.819 136.666)" fill="#183B89"/>
<rect x="558.196" y="136.666" width="50" height="50" rx="4" transform="rotate(45 558.196 136.666)" fill="#183B89"/>
<rect x="635.574" y="136.666" width="50" height="50" rx="4" transform="rotate(45 635.574 136.666)" fill="#183B89"/>
<rect x="712.952" y="136.666" width="50" height="50" rx="4" transform="rotate(45 712.952 136.666)" fill="#183B89"/>
<rect x="790.33" y="136.666" width="50" height="50" rx="4" transform="rotate(45 790.33 136.666)" fill="#183B89"/>
<rect x="867.708" y="136.666" width="50" height="50" rx="4" transform="rotate(45 867.708 136.666)" fill="#183B89"/>
<rect x="945.086" y="136.666" width="50" height="50" rx="4" transform="rotate(45 945.086 136.666)" fill="#183B89"/>
<rect x="1022.46" y="136.666" width="50" height="50" rx="4" transform="rotate(45 1022.46 136.666)" fill="#183B89"/>
<rect x="16.5435" y="214.043" width="50" height="50" rx="4" transform="rotate(45 16.5435 214.043)" fill="#183B89"/>
<rect x="93.9214" y="214.043" width="50" height="50" rx="4" transform="rotate(45 93.9214 214.043)" fill="#183B89"/>
<rect x="171.299" y="214.043" width="50" height="50" rx="4" transform="rotate(45 171.299 214.043)" fill="#183B89"/>
<rect x="248.677" y="214.043" width="50" height="50" rx="4" transform="rotate(45 248.677 214.043)" fill="#183B89"/>
<rect x="326.055" y="214.043" width="50" height="50" rx="4" transform="rotate(45 326.055 214.043)" fill="#183B89"/>
<rect x="403.433" y="214.043" width="50" height="50" rx="4" transform="rotate(45 403.433 214.043)" fill="#183B89"/>
<rect x="480.811" y="214.043" width="50" height="50" rx="4" transform="rotate(45 480.811 214.043)" fill="#183B89"/>
<rect x="558.189" y="214.043" width="50" height="50" rx="4" transform="rotate(45 558.189 214.043)" fill="#183B89"/>
<rect x="635.567" y="214.043" width="50" height="50" rx="4" transform="rotate(45 635.567 214.043)" fill="#183B89"/>
<rect x="712.945" y="214.043" width="50" height="50" rx="4" transform="rotate(45 712.945 214.043)" fill="#183B89"/>
<rect x="790.323" y="214.043" width="50" height="50" rx="4" transform="rotate(45 790.323 214.043)" fill="#183B89"/>
<rect x="867.701" y="214.043" width="50" height="50" rx="4" transform="rotate(45 867.701 214.043)" fill="#183B89"/>
<rect x="945.079" y="214.043" width="50" height="50" rx="4" transform="rotate(45 945.079 214.043)" fill="#183B89"/>
<rect x="1022.46" y="214.043" width="50" height="50" rx="4" transform="rotate(45 1022.46 214.043)" fill="#183B89"/>
<rect x="-22.2593" y="560.833" width="50" height="50" rx="4" transform="rotate(45 -22.2593 560.833)" fill="#183B89"/>
<rect x="55.1187" y="560.833" width="50" height="50" rx="4" transform="rotate(45 55.1187 560.833)" fill="#183B89"/>
<rect x="132.497" y="560.833" width="50" height="50" rx="4" transform="rotate(45 132.497 560.833)" fill="#183B89"/>
<rect x="209.875" y="560.833" width="50" height="50" rx="4" transform="rotate(45 209.875 560.833)" fill="#183B89"/>
<rect x="287.253" y="560.833" width="50" height="50" rx="4" transform="rotate(45 287.253 560.833)" fill="#183B89"/>
<rect x="364.63" y="560.833" width="50" height="50" rx="4" transform="rotate(45 364.63 560.833)" fill="#183B89"/>
<rect x="442.008" y="560.833" width="50" height="50" rx="4" transform="rotate(45 442.008 560.833)" fill="#183B89"/>
<rect x="519.386" y="560.833" width="50" height="50" rx="4" transform="rotate(45 519.386 560.833)" fill="#183B89"/>
<rect x="596.764" y="560.833" width="50" height="50" rx="4" transform="rotate(45 596.764 560.833)" fill="#183B89"/>
<rect x="674.142" y="560.833" width="50" height="50" rx="4" transform="rotate(45 674.142 560.833)" fill="#183B89"/>
<rect x="751.52" y="560.833" width="50" height="50" rx="4" transform="rotate(45 751.52 560.833)" fill="#183B89"/>
<rect x="828.897" y="560.833" width="50" height="50" rx="4" transform="rotate(45 828.897 560.833)" fill="#183B89"/>
<rect x="906.275" y="560.833" width="50" height="50" rx="4" transform="rotate(45 906.275 560.833)" fill="#183B89"/>
<rect x="983.653" y="560.833" width="50" height="50" rx="4" transform="rotate(45 983.653 560.833)" fill="#183B89"/>
<rect x="-22.2671" y="638.21" width="50" height="50" rx="4" transform="rotate(45 -22.2671 638.21)" fill="#183B89"/>
<rect x="55.1108" y="638.21" width="50" height="50" rx="4" transform="rotate(45 55.1108 638.21)" fill="#183B89"/>
<rect x="132.489" y="638.21" width="50" height="50" rx="4" transform="rotate(45 132.489 638.21)" fill="#183B89"/>
<rect x="209.867" y="638.21" width="50" height="50" rx="4" transform="rotate(45 209.867 638.21)" fill="#183B89"/>
<rect x="287.245" y="638.21" width="50" height="50" rx="4" transform="rotate(45 287.245 638.21)" fill="#183B89"/>
<rect x="364.623" y="638.21" width="50" height="50" rx="4" transform="rotate(45 364.623 638.21)" fill="#183B89"/>
<rect x="442" y="638.21" width="50" height="50" rx="4" transform="rotate(45 442 638.21)" fill="#183B89"/>
<rect x="519.378" y="638.21" width="50" height="50" rx="4" transform="rotate(45 519.378 638.21)" fill="#183B89"/>
<rect x="596.756" y="638.21" width="50" height="50" rx="4" transform="rotate(45 596.756 638.21)" fill="#183B89"/>
<rect x="674.134" y="638.21" width="50" height="50" rx="4" transform="rotate(45 674.134 638.21)" fill="#183B89"/>
<rect x="751.512" y="638.21" width="50" height="50" rx="4" transform="rotate(45 751.512 638.21)" fill="#183B89"/>
<rect x="828.89" y="638.21" width="50" height="50" rx="4" transform="rotate(45 828.89 638.21)" fill="#183B89"/>
<rect x="906.268" y="638.21" width="50" height="50" rx="4" transform="rotate(45 906.268 638.21)" fill="#183B89"/>
<rect x="983.646" y="638.21" width="50" height="50" rx="4" transform="rotate(45 983.646 638.21)" fill="#183B89"/>
<rect x="16.5513" y="599.166" width="50" height="50" rx="4" transform="rotate(45 16.5513 599.166)" fill="#183B89"/>
<rect x="93.9292" y="599.166" width="50" height="50" rx="4" transform="rotate(45 93.9292 599.166)" fill="#183B89"/>
<rect x="171.308" y="599.166" width="50" height="50" rx="4" transform="rotate(45 171.308 599.166)" fill="#183B89"/>
<rect x="248.686" y="599.166" width="50" height="50" rx="4" transform="rotate(45 248.686 599.166)" fill="#183B89"/>
<rect x="326.063" y="599.166" width="50" height="50" rx="4" transform="rotate(45 326.063 599.166)" fill="#183B89"/>
<rect x="403.441" y="599.166" width="50" height="50" rx="4" transform="rotate(45 403.441 599.166)" fill="#183B89"/>
<rect x="480.819" y="599.166" width="50" height="50" rx="4" transform="rotate(45 480.819 599.166)" fill="#183B89"/>
<rect x="558.196" y="599.166" width="50" height="50" rx="4" transform="rotate(45 558.196 599.166)" fill="#183B89"/>
<rect x="635.574" y="599.166" width="50" height="50" rx="4" transform="rotate(45 635.574 599.166)" fill="#183B89"/>
<rect x="712.952" y="599.166" width="50" height="50" rx="4" transform="rotate(45 712.952 599.166)" fill="#183B89"/>
<rect x="790.33" y="599.166" width="50" height="50" rx="4" transform="rotate(45 790.33 599.166)" fill="#183B89"/>
<rect x="867.708" y="599.166" width="50" height="50" rx="4" transform="rotate(45 867.708 599.166)" fill="#183B89"/>
<rect x="945.086" y="599.166" width="50" height="50" rx="4" transform="rotate(45 945.086 599.166)" fill="#183B89"/>
<rect x="1022.46" y="599.166" width="50" height="50" rx="4" transform="rotate(45 1022.46 599.166)" fill="#183B89"/>
<rect x="16.5435" y="676.543" width="50" height="50" rx="4" transform="rotate(45 16.5435 676.543)" fill="#183B89"/>
<rect x="93.9214" y="676.543" width="50" height="50" rx="4" transform="rotate(45 93.9214 676.543)" fill="#183B89"/>
<rect x="171.299" y="676.543" width="50" height="50" rx="4" transform="rotate(45 171.299 676.543)" fill="#183B89"/>
<rect x="248.677" y="676.543" width="50" height="50" rx="4" transform="rotate(45 248.677 676.543)" fill="#183B89"/>
<rect x="326.055" y="676.543" width="50" height="50" rx="4" transform="rotate(45 326.055 676.543)" fill="#183B89"/>
<rect x="403.433" y="676.543" width="50" height="50" rx="4" transform="rotate(45 403.433 676.543)" fill="#183B89"/>
<rect x="480.811" y="676.543" width="50" height="50" rx="4" transform="rotate(45 480.811 676.543)" fill="#183B89"/>
<rect x="558.189" y="676.543" width="50" height="50" rx="4" transform="rotate(45 558.189 676.543)" fill="#183B89"/>
<rect x="635.567" y="676.543" width="50" height="50" rx="4" transform="rotate(45 635.567 676.543)" fill="#183B89"/>
<rect x="712.945" y="676.543" width="50" height="50" rx="4" transform="rotate(45 712.945 676.543)" fill="#183B89"/>
<rect x="790.323" y="676.543" width="50" height="50" rx="4" transform="rotate(45 790.323 676.543)" fill="#183B89"/>
<rect x="867.701" y="676.543" width="50" height="50" rx="4" transform="rotate(45 867.701 676.543)" fill="#183B89"/>
<rect x="945.079" y="676.543" width="50" height="50" rx="4" transform="rotate(45 945.079 676.543)" fill="#183B89"/>
<rect x="1022.46" y="676.543" width="50" height="50" rx="4" transform="rotate(45 1022.46 676.543)" fill="#183B89"/>
<rect x="-22.2593" y="252.499" width="50" height="50" rx="4" transform="rotate(45 -22.2593 252.499)" fill="#183B89"/>
<rect x="55.1187" y="252.499" width="50" height="50" rx="4" transform="rotate(45 55.1187 252.499)" fill="#183B89"/>
<rect x="132.497" y="252.499" width="50" height="50" rx="4" transform="rotate(45 132.497 252.499)" fill="#183B89"/>
<rect x="209.875" y="252.499" width="50" height="50" rx="4" transform="rotate(45 209.875 252.499)" fill="#183B89"/>
<rect x="287.253" y="252.499" width="50" height="50" rx="4" transform="rotate(45 287.253 252.499)" fill="#183B89"/>
<rect x="364.63" y="252.499" width="50" height="50" rx="4" transform="rotate(45 364.63 252.499)" fill="#183B89"/>
<rect x="442.008" y="252.499" width="50" height="50" rx="4" transform="rotate(45 442.008 252.499)" fill="#183B89"/>
<rect x="519.386" y="252.499" width="50" height="50" rx="4" transform="rotate(45 519.386 252.499)" fill="#183B89"/>
<rect x="596.764" y="252.499" width="50" height="50" rx="4" transform="rotate(45 596.764 252.499)" fill="#183B89"/>
<rect x="674.142" y="252.499" width="50" height="50" rx="4" transform="rotate(45 674.142 252.499)" fill="#183B89"/>
<rect x="751.52" y="252.499" width="50" height="50" rx="4" transform="rotate(45 751.52 252.499)" fill="#183B89"/>
<rect x="828.897" y="252.499" width="50" height="50" rx="4" transform="rotate(45 828.897 252.499)" fill="#183B89"/>
<rect x="906.275" y="252.499" width="50" height="50" rx="4" transform="rotate(45 906.275 252.499)" fill="#183B89"/>
<rect x="983.653" y="252.499" width="50" height="50" rx="4" transform="rotate(45 983.653 252.499)" fill="#183B89"/>
<rect x="-22.2671" y="329.876" width="50" height="50" rx="4" transform="rotate(45 -22.2671 329.876)" fill="#183B89"/>
<rect x="55.1108" y="329.876" width="50" height="50" rx="4" transform="rotate(45 55.1108 329.876)" fill="#183B89"/>
<rect x="132.489" y="329.876" width="50" height="50" rx="4" transform="rotate(45 132.489 329.876)" fill="#183B89"/>
<rect x="209.867" y="329.876" width="50" height="50" rx="4" transform="rotate(45 209.867 329.876)" fill="#183B89"/>
<rect x="287.245" y="329.876" width="50" height="50" rx="4" transform="rotate(45 287.245 329.876)" fill="#183B89"/>
<rect x="364.623" y="329.876" width="50" height="50" rx="4" transform="rotate(45 364.623 329.876)" fill="#183B89"/>
<rect x="442" y="329.876" width="50" height="50" rx="4" transform="rotate(45 442 329.876)" fill="#183B89"/>
<rect x="519.378" y="329.876" width="50" height="50" rx="4" transform="rotate(45 519.378 329.876)" fill="#183B89"/>
<rect x="596.756" y="329.876" width="50" height="50" rx="4" transform="rotate(45 596.756 329.876)" fill="#183B89"/>
<rect x="674.134" y="329.876" width="50" height="50" rx="4" transform="rotate(45 674.134 329.876)" fill="#183B89"/>
<rect x="751.512" y="329.876" width="50" height="50" rx="4" transform="rotate(45 751.512 329.876)" fill="#183B89"/>
<rect x="828.89" y="329.876" width="50" height="50" rx="4" transform="rotate(45 828.89 329.876)" fill="#183B89"/>
<rect x="906.268" y="329.876" width="50" height="50" rx="4" transform="rotate(45 906.268 329.876)" fill="#183B89"/>
<rect x="983.646" y="329.876" width="50" height="50" rx="4" transform="rotate(45 983.646 329.876)" fill="#183B89"/>
<rect x="16.5513" y="290.833" width="50" height="50" rx="4" transform="rotate(45 16.5513 290.833)" fill="#183B89"/>
<rect x="93.9292" y="290.833" width="50" height="50" rx="4" transform="rotate(45 93.9292 290.833)" fill="#183B89"/>
<rect x="171.308" y="290.833" width="50" height="50" rx="4" transform="rotate(45 171.308 290.833)" fill="#183B89"/>
<rect x="248.686" y="290.833" width="50" height="50" rx="4" transform="rotate(45 248.686 290.833)" fill="#183B89"/>
<rect x="326.063" y="290.833" width="50" height="50" rx="4" transform="rotate(45 326.063 290.833)" fill="#183B89"/>
<rect x="403.441" y="290.833" width="50" height="50" rx="4" transform="rotate(45 403.441 290.833)" fill="#183B89"/>
<rect x="480.819" y="290.833" width="50" height="50" rx="4" transform="rotate(45 480.819 290.833)" fill="#183B89"/>
<rect x="558.196" y="290.833" width="50" height="50" rx="4" transform="rotate(45 558.196 290.833)" fill="#183B89"/>
<rect x="635.574" y="290.833" width="50" height="50" rx="4" transform="rotate(45 635.574 290.833)" fill="#183B89"/>
<rect x="712.952" y="290.833" width="50" height="50" rx="4" transform="rotate(45 712.952 290.833)" fill="#183B89"/>
<rect x="790.33" y="290.833" width="50" height="50" rx="4" transform="rotate(45 790.33 290.833)" fill="#183B89"/>
<rect x="867.708" y="290.833" width="50" height="50" rx="4" transform="rotate(45 867.708 290.833)" fill="#183B89"/>
<rect x="945.086" y="290.833" width="50" height="50" rx="4" transform="rotate(45 945.086 290.833)" fill="#183B89"/>
<rect x="1022.46" y="290.833" width="50" height="50" rx="4" transform="rotate(45 1022.46 290.833)" fill="#183B89"/>
<rect x="16.5435" y="368.21" width="50" height="50" rx="4" transform="rotate(45 16.5435 368.21)" fill="#183B89"/>
<rect x="93.9214" y="368.21" width="50" height="50" rx="4" transform="rotate(45 93.9214 368.21)" fill="#183B89"/>
<rect x="171.299" y="368.21" width="50" height="50" rx="4" transform="rotate(45 171.299 368.21)" fill="#183B89"/>
<rect x="248.677" y="368.21" width="50" height="50" rx="4" transform="rotate(45 248.677 368.21)" fill="#183B89"/>
<rect x="326.055" y="368.21" width="50" height="50" rx="4" transform="rotate(45 326.055 368.21)" fill="#183B89"/>
<rect x="403.433" y="368.21" width="50" height="50" rx="4" transform="rotate(45 403.433 368.21)" fill="#183B89"/>
<rect x="480.811" y="368.21" width="50" height="50" rx="4" transform="rotate(45 480.811 368.21)" fill="#183B89"/>
<rect x="558.189" y="368.21" width="50" height="50" rx="4" transform="rotate(45 558.189 368.21)" fill="#183B89"/>
<rect x="635.567" y="368.21" width="50" height="50" rx="4" transform="rotate(45 635.567 368.21)" fill="#183B89"/>
<rect x="712.945" y="368.21" width="50" height="50" rx="4" transform="rotate(45 712.945 368.21)" fill="#183B89"/>
<rect x="790.323" y="368.21" width="50" height="50" rx="4" transform="rotate(45 790.323 368.21)" fill="#183B89"/>
<rect x="867.701" y="368.21" width="50" height="50" rx="4" transform="rotate(45 867.701 368.21)" fill="#183B89"/>
<rect x="945.079" y="368.21" width="50" height="50" rx="4" transform="rotate(45 945.079 368.21)" fill="#183B89"/>
<rect x="1022.46" y="368.21" width="50" height="50" rx="4" transform="rotate(45 1022.46 368.21)" fill="#183B89"/>
<rect x="-22.2593" y="714.999" width="50" height="50" rx="4" transform="rotate(45 -22.2593 714.999)" fill="#183B89"/>
<rect x="55.1187" y="714.999" width="50" height="50" rx="4" transform="rotate(45 55.1187 714.999)" fill="#183B89"/>
<rect x="132.497" y="714.999" width="50" height="50" rx="4" transform="rotate(45 132.497 714.999)" fill="#183B89"/>
<rect x="209.875" y="714.999" width="50" height="50" rx="4" transform="rotate(45 209.875 714.999)" fill="#183B89"/>
<rect x="287.253" y="714.999" width="50" height="50" rx="4" transform="rotate(45 287.253 714.999)" fill="#183B89"/>
<rect x="364.63" y="714.999" width="50" height="50" rx="4" transform="rotate(45 364.63 714.999)" fill="#183B89"/>
<rect x="442.008" y="714.999" width="50" height="50" rx="4" transform="rotate(45 442.008 714.999)" fill="#183B89"/>
<rect x="519.386" y="714.999" width="50" height="50" rx="4" transform="rotate(45 519.386 714.999)" fill="#183B89"/>
<rect x="596.764" y="714.999" width="50" height="50" rx="4" transform="rotate(45 596.764 714.999)" fill="#183B89"/>
<rect x="674.142" y="714.999" width="50" height="50" rx="4" transform="rotate(45 674.142 714.999)" fill="#183B89"/>
<rect x="751.52" y="714.999" width="50" height="50" rx="4" transform="rotate(45 751.52 714.999)" fill="#183B89"/>
<rect x="828.897" y="714.999" width="50" height="50" rx="4" transform="rotate(45 828.897 714.999)" fill="#183B89"/>
<rect x="906.275" y="714.999" width="50" height="50" rx="4" transform="rotate(45 906.275 714.999)" fill="#183B89"/>
<rect x="983.653" y="714.999" width="50" height="50" rx="4" transform="rotate(45 983.653 714.999)" fill="#183B89"/>
<rect x="-22.2671" y="792.376" width="50" height="50" rx="4" transform="rotate(45 -22.2671 792.376)" fill="#183B89"/>
<rect x="55.1108" y="792.376" width="50" height="50" rx="4" transform="rotate(45 55.1108 792.376)" fill="#183B89"/>
<rect x="132.489" y="792.376" width="50" height="50" rx="4" transform="rotate(45 132.489 792.376)" fill="#183B89"/>
<rect x="209.867" y="792.376" width="50" height="50" rx="4" transform="rotate(45 209.867 792.376)" fill="#183B89"/>
<rect x="287.245" y="792.376" width="50" height="50" rx="4" transform="rotate(45 287.245 792.376)" fill="#183B89"/>
<rect x="364.623" y="792.376" width="50" height="50" rx="4" transform="rotate(45 364.623 792.376)" fill="#183B89"/>
<rect x="442" y="792.376" width="50" height="50" rx="4" transform="rotate(45 442 792.376)" fill="#183B89"/>
<rect x="519.378" y="792.376" width="50" height="50" rx="4" transform="rotate(45 519.378 792.376)" fill="#183B89"/>
<rect x="596.756" y="792.376" width="50" height="50" rx="4" transform="rotate(45 596.756 792.376)" fill="#183B89"/>
<rect x="674.134" y="792.376" width="50" height="50" rx="4" transform="rotate(45 674.134 792.376)" fill="#183B89"/>
<rect x="751.512" y="792.376" width="50" height="50" rx="4" transform="rotate(45 751.512 792.376)" fill="#183B89"/>
<rect x="828.89" y="792.376" width="50" height="50" rx="4" transform="rotate(45 828.89 792.376)" fill="#183B89"/>
<rect x="906.268" y="792.376" width="50" height="50" rx="4" transform="rotate(45 906.268 792.376)" fill="#183B89"/>
<rect x="983.646" y="792.376" width="50" height="50" rx="4" transform="rotate(45 983.646 792.376)" fill="#183B89"/>
<rect x="16.5513" y="753.333" width="50" height="50" rx="4" transform="rotate(45 16.5513 753.333)" fill="#183B89"/>
<rect x="93.9292" y="753.333" width="50" height="50" rx="4" transform="rotate(45 93.9292 753.333)" fill="#183B89"/>
<rect x="171.308" y="753.333" width="50" height="50" rx="4" transform="rotate(45 171.308 753.333)" fill="#183B89"/>
<rect x="248.686" y="753.333" width="50" height="50" rx="4" transform="rotate(45 248.686 753.333)" fill="#183B89"/>
<rect x="326.063" y="753.333" width="50" height="50" rx="4" transform="rotate(45 326.063 753.333)" fill="#183B89"/>
<rect x="403.441" y="753.333" width="50" height="50" rx="4" transform="rotate(45 403.441 753.333)" fill="#183B89"/>
<rect x="480.819" y="753.333" width="50" height="50" rx="4" transform="rotate(45 480.819 753.333)" fill="#183B89"/>
<rect x="558.196" y="753.333" width="50" height="50" rx="4" transform="rotate(45 558.196 753.333)" fill="#183B89"/>
<rect x="635.574" y="753.333" width="50" height="50" rx="4" transform="rotate(45 635.574 753.333)" fill="#183B89"/>
<rect x="712.952" y="753.333" width="50" height="50" rx="4" transform="rotate(45 712.952 753.333)" fill="#183B89"/>
<rect x="790.33" y="753.333" width="50" height="50" rx="4" transform="rotate(45 790.33 753.333)" fill="#183B89"/>
<rect x="867.708" y="753.333" width="50" height="50" rx="4" transform="rotate(45 867.708 753.333)" fill="#183B89"/>
<rect x="945.086" y="753.333" width="50" height="50" rx="4" transform="rotate(45 945.086 753.333)" fill="#183B89"/>
<rect x="1022.46" y="753.333" width="50" height="50" rx="4" transform="rotate(45 1022.46 753.333)" fill="#183B89"/>
<rect x="16.5435" y="830.71" width="50" height="50" rx="4" transform="rotate(45 16.5435 830.71)" fill="#183B89"/>
<rect x="93.9214" y="830.71" width="50" height="50" rx="4" transform="rotate(45 93.9214 830.71)" fill="#183B89"/>
<rect x="171.299" y="830.71" width="50" height="50" rx="4" transform="rotate(45 171.299 830.71)" fill="#183B89"/>
<rect x="248.677" y="830.71" width="50" height="50" rx="4" transform="rotate(45 248.677 830.71)" fill="#183B89"/>
<rect x="326.055" y="830.71" width="50" height="50" rx="4" transform="rotate(45 326.055 830.71)" fill="#183B89"/>
<rect x="403.433" y="830.71" width="50" height="50" rx="4" transform="rotate(45 403.433 830.71)" fill="#183B89"/>
<rect x="480.811" y="830.71" width="50" height="50" rx="4" transform="rotate(45 480.811 830.71)" fill="#183B89"/>
<rect x="558.189" y="830.71" width="50" height="50" rx="4" transform="rotate(45 558.189 830.71)" fill="#183B89"/>
<rect x="635.567" y="830.71" width="50" height="50" rx="4" transform="rotate(45 635.567 830.71)" fill="#183B89"/>
<rect x="712.945" y="830.71" width="50" height="50" rx="4" transform="rotate(45 712.945 830.71)" fill="#183B89"/>
<rect x="790.323" y="830.71" width="50" height="50" rx="4" transform="rotate(45 790.323 830.71)" fill="#183B89"/>
<rect x="867.701" y="830.71" width="50" height="50" rx="4" transform="rotate(45 867.701 830.71)" fill="#183B89"/>
<rect x="945.079" y="830.71" width="50" height="50" rx="4" transform="rotate(45 945.079 830.71)" fill="#183B89"/>
<rect x="1022.46" y="830.71" width="50" height="50" rx="4" transform="rotate(45 1022.46 830.71)" fill="#183B89"/>
<rect x="-22.2593" y="869.999" width="50" height="50" rx="4" transform="rotate(45 -22.2593 869.999)" fill="#183B89"/>
<rect x="55.1187" y="869.999" width="50" height="50" rx="4" transform="rotate(45 55.1187 869.999)" fill="#183B89"/>
<rect x="132.497" y="869.999" width="50" height="50" rx="4" transform="rotate(45 132.497 869.999)" fill="#183B89"/>
<rect x="209.875" y="869.999" width="50" height="50" rx="4" transform="rotate(45 209.875 869.999)" fill="#183B89"/>
<rect x="287.253" y="869.999" width="50" height="50" rx="4" transform="rotate(45 287.253 869.999)" fill="#183B89"/>
<rect x="364.63" y="869.999" width="50" height="50" rx="4" transform="rotate(45 364.63 869.999)" fill="#183B89"/>
<rect x="442.008" y="869.999" width="50" height="50" rx="4" transform="rotate(45 442.008 869.999)" fill="#183B89"/>
<rect x="519.386" y="869.999" width="50" height="50" rx="4" transform="rotate(45 519.386 869.999)" fill="#183B89"/>
<rect x="596.764" y="869.999" width="50" height="50" rx="4" transform="rotate(45 596.764 869.999)" fill="#183B89"/>
<rect x="674.142" y="869.999" width="50" height="50" rx="4" transform="rotate(45 674.142 869.999)" fill="#183B89"/>
<rect x="751.52" y="869.999" width="50" height="50" rx="4" transform="rotate(45 751.52 869.999)" fill="#183B89"/>
<rect x="828.897" y="869.999" width="50" height="50" rx="4" transform="rotate(45 828.897 869.999)" fill="#183B89"/>
<rect x="906.275" y="869.999" width="50" height="50" rx="4" transform="rotate(45 906.275 869.999)" fill="#183B89"/>
<rect x="983.653" y="869.999" width="50" height="50" rx="4" transform="rotate(45 983.653 869.999)" fill="#183B89"/>
<rect x="-22.2671" y="947.376" width="50" height="50" rx="4" transform="rotate(45 -22.2671 947.376)" fill="#183B89"/>
<rect x="55.1108" y="947.376" width="50" height="50" rx="4" transform="rotate(45 55.1108 947.376)" fill="#183B89"/>
<rect x="132.489" y="947.376" width="50" height="50" rx="4" transform="rotate(45 132.489 947.376)" fill="#183B89"/>
<rect x="209.867" y="947.376" width="50" height="50" rx="4" transform="rotate(45 209.867 947.376)" fill="#183B89"/>
<rect x="287.245" y="947.376" width="50" height="50" rx="4" transform="rotate(45 287.245 947.376)" fill="#183B89"/>
<rect x="364.623" y="947.376" width="50" height="50" rx="4" transform="rotate(45 364.623 947.376)" fill="#183B89"/>
<rect x="442" y="947.376" width="50" height="50" rx="4" transform="rotate(45 442 947.376)" fill="#183B89"/>
<rect x="519.378" y="947.376" width="50" height="50" rx="4" transform="rotate(45 519.378 947.376)" fill="#183B89"/>
<rect x="596.756" y="947.376" width="50" height="50" rx="4" transform="rotate(45 596.756 947.376)" fill="#183B89"/>
<rect x="674.134" y="947.376" width="50" height="50" rx="4" transform="rotate(45 674.134 947.376)" fill="#183B89"/>
<rect x="751.512" y="947.376" width="50" height="50" rx="4" transform="rotate(45 751.512 947.376)" fill="#183B89"/>
<rect x="828.89" y="947.376" width="50" height="50" rx="4" transform="rotate(45 828.89 947.376)" fill="#183B89"/>
<rect x="906.268" y="947.376" width="50" height="50" rx="4" transform="rotate(45 906.268 947.376)" fill="#183B89"/>
<rect x="983.646" y="947.376" width="50" height="50" rx="4" transform="rotate(45 983.646 947.376)" fill="#183B89"/>
<rect x="16.5513" y="908.333" width="50" height="50" rx="4" transform="rotate(45 16.5513 908.333)" fill="#183B89"/>
<rect x="93.9292" y="908.333" width="50" height="50" rx="4" transform="rotate(45 93.9292 908.333)" fill="#183B89"/>
<rect x="171.308" y="908.333" width="50" height="50" rx="4" transform="rotate(45 171.308 908.333)" fill="#183B89"/>
<rect x="248.686" y="908.333" width="50" height="50" rx="4" transform="rotate(45 248.686 908.333)" fill="#183B89"/>
<rect x="326.063" y="908.333" width="50" height="50" rx="4" transform="rotate(45 326.063 908.333)" fill="#183B89"/>
<rect x="403.441" y="908.333" width="50" height="50" rx="4" transform="rotate(45 403.441 908.333)" fill="#183B89"/>
<rect x="480.819" y="908.333" width="50" height="50" rx="4" transform="rotate(45 480.819 908.333)" fill="#183B89"/>
<rect x="558.196" y="908.333" width="50" height="50" rx="4" transform="rotate(45 558.196 908.333)" fill="#183B89"/>
<rect x="635.574" y="908.333" width="50" height="50" rx="4" transform="rotate(45 635.574 908.333)" fill="#183B89"/>
<rect x="712.952" y="908.333" width="50" height="50" rx="4" transform="rotate(45 712.952 908.333)" fill="#183B89"/>
<rect x="790.33" y="908.333" width="50" height="50" rx="4" transform="rotate(45 790.33 908.333)" fill="#183B89"/>
<rect x="867.708" y="908.333" width="50" height="50" rx="4" transform="rotate(45 867.708 908.333)" fill="#183B89"/>
<rect x="945.086" y="908.333" width="50" height="50" rx="4" transform="rotate(45 945.086 908.333)" fill="#183B89"/>
<rect x="1022.46" y="908.333" width="50" height="50" rx="4" transform="rotate(45 1022.46 908.333)" fill="#183B89"/>
<rect x="16.5435" y="985.71" width="50" height="50" rx="4" transform="rotate(45 16.5435 985.71)" fill="#183B89"/>
<rect x="93.9214" y="985.71" width="50" height="50" rx="4" transform="rotate(45 93.9214 985.71)" fill="#183B89"/>
<rect x="171.299" y="985.71" width="50" height="50" rx="4" transform="rotate(45 171.299 985.71)" fill="#183B89"/>
<rect x="248.677" y="985.71" width="50" height="50" rx="4" transform="rotate(45 248.677 985.71)" fill="#183B89"/>
<rect x="326.055" y="985.71" width="50" height="50" rx="4" transform="rotate(45 326.055 985.71)" fill="#183B89"/>
<rect x="403.433" y="985.71" width="50" height="50" rx="4" transform="rotate(45 403.433 985.71)" fill="#183B89"/>
<rect x="480.811" y="985.71" width="50" height="50" rx="4" transform="rotate(45 480.811 985.71)" fill="#183B89"/>
<rect x="558.189" y="985.71" width="50" height="50" rx="4" transform="rotate(45 558.189 985.71)" fill="#183B89"/>
<rect x="635.567" y="985.71" width="50" height="50" rx="4" transform="rotate(45 635.567 985.71)" fill="#183B89"/>
<rect x="712.945" y="985.71" width="50" height="50" rx="4" transform="rotate(45 712.945 985.71)" fill="#183B89"/>
<rect x="790.323" y="985.71" width="50" height="50" rx="4" transform="rotate(45 790.323 985.71)" fill="#183B89"/>
<rect x="867.701" y="985.71" width="50" height="50" rx="4" transform="rotate(45 867.701 985.71)" fill="#183B89"/>
<rect x="945.079" y="985.71" width="50" height="50" rx="4" transform="rotate(45 945.079 985.71)" fill="#183B89"/>
<rect x="1022.46" y="985.71" width="50" height="50" rx="4" transform="rotate(45 1022.46 985.71)" fill="#183B89"/>
</g>
</g>
</g>
<defs>
<radialGradient id="paint0_radial" cx="0" cy="0" r="1" gradientUnits="userSpaceOnUse" gradientTransform="translate(500 500) rotate(90) scale(500)">
<stop stop-color="#C4C4C4" stop-opacity="0.65"/>
<stop offset="0.369792" stop-color="#C4C4C4" stop-opacity="0.4"/>
<stop offset="0.65625" stop-color="#C4C4C4" stop-opacity="0.2"/>
<stop offset="1" stop-color="#C4C4C4" stop-opacity="0"/>
</radialGradient>
</defs>
</svg>
